<?xml version="1.0" encoding="utf-8"?>
<!-- Generator: Adobe Illustrator 16.0.4, SVG Export Plug-In . SVG Version: 6.00 Build 0)  -->
<!DOCTYPE svg PUBLIC "-//W3C//DTD SVG 1.1//EN" "http://www.w3.org/Graphics/SVG/1.1/DTD/svg11.dtd">
<svg version="1.1" id="Layer_1" xmlns="http://www.w3.org/2000/svg" xmlns:xlink="http://www.w3.org/1999/xlink" x="0px" y="0px"
	 width="394.5px" height="100.417px" viewBox="0 26.083 394.5 100.417" enable-background="new 0 26.083 394.5 100.417"
	 xml:space="preserve">
<g>
	<path fill="#8B408F" stroke="#6C0082" stroke-miterlimit="10" d="M78.787,107.996l0.372-5.411l2.104-5.251l3.003-3.328l3.317-1.924
		l4.257-0.561c2.378,0.961,3.472,1.205,4.168,1.362c0.47,0.105,3.64,3.046,3.64,3.046l2.025,4.17l1.086,4.77l-0.097,3.141
		L78.787,107.996z"/>
	<path fill="#8B408F" stroke="#6C0082" stroke-miterlimit="10" d="M71.884,108.003l0.26-2.795l1.47-2.712l2.099-1.719l2.317-0.994
		l2.975-0.289c1.662,0.497,2.426,0.622,2.913,0.704c0.328,0.055,2.543,1.573,2.543,1.573l1.415,2.152l0.759,2.463l-0.068,1.622
		L71.884,108.003z"/>
	<path fill="#8B408F" stroke="#6C0082" stroke-miterlimit="10" d="M93.217,107.999l0.26-4.285l1.47-4.157l2.099-2.637l2.317-1.523
		l2.975-0.443c1.662,0.762,2.426,0.954,2.913,1.08c0.328,0.083,2.543,2.412,2.543,2.412l1.415,3.302l0.759,3.776l-0.068,2.486
		L93.217,107.999z"/>
</g>
<path fill="#EA3B54" stroke="#FF807D" stroke-miterlimit="10" d="M230.759,107.988l0.808-8.438l4.576-8.188l6.53-5.188l7.212-3
	l9.256-0.875c5.17,1.5,7.551,1.879,9.063,2.125c1.021,0.166,7.915,4.75,7.915,4.75l4.404,6.5l2.361,7.438l-0.212,4.896
	L230.759,107.988z"/>
<path fill="#7DC6C6" stroke="#61AFAD" stroke-linecap="round" stroke-linejoin="round" stroke-miterlimit="10" d="M109.743,105.732
	c-0.004-9.475-0.006-27.051-0.006-34.348c0-7.203,2.196-11.338-0.3-21.514c-1.728,11.527-12.481,9.416-18.242,15.171
	c2.113,0,3.793,6.146,3.793,9.847c0,13.342,0.047,29.728,0.047,29.728c-0.006,6.468-3.805,7.663-3.805,7.663
	s3.469-0.383,5.437-0.383c6,0,10.586,6.601,16.851,0.336C112.544,112.232,109.924,110.878,109.743,105.732z"/>
<path fill="#7DC6C6" stroke="#61AFAD" stroke-linecap="round" stroke-linejoin="round" stroke-miterlimit="10" d="M316.266,105.732
	c-0.004-9.475-0.012-25.887-0.006-25.887c0-7.201,2.197-17.492-0.3-27.669c-6.146,8.929-12.626,5.04-18.819,9.216
	c5.113,0.648,4.394,20.355,4.394,15.171c0-5.185,0.022,28.052,0.022,28.052c-0.006,6.468-3.805,7.663-3.805,7.663
	s6.158,0,8.895,1.824c4.992,3.33,11.019,7.562,17.283,1.297C322.956,115.4,316.266,116.121,316.266,105.732z"/>
<path fill="#7DC6C6" stroke="#61AFAD" stroke-linecap="round" stroke-linejoin="round" stroke-miterlimit="10" d="M203.723,70.611
	c-8.148,0-14.333,4.049-18.004,6.693c0.193-2.598,0.298-4.723-0.119-6.767c-7.417,5.761-11.954,0.792-19.275,5.112
	c5.305,2.305,4.825,10.776,4.825,10.776s0.01,0,0.023,0v16.658c0,4.306-4.032,7.901-5.521,9.151
	c2.857-0.479,5.666-0.295,7.634-0.295c6,0,6.985,5.811,14.906,0.289c-0.973,0-2.706-3.641-2.887-8.785
	c-0.004-9.475-0.012-17.648-0.005-17.648c0-1.64,0.058-3.115,0.136-4.474c0.039-2.15,3.332-4.568,7.149-4.568
	c3.84,0,6.049,5.761,6.049,18.529c0,12.771-1.248,29.093-7.777,29.093c13.25,0,22.323-8.45,22.323-21.22
	C213.18,90.387,215.82,70.611,203.723,70.611z"/>
<path fill="#7DC6C6" stroke="#61AFAD" stroke-linecap="round" stroke-linejoin="round" stroke-miterlimit="10" d="M260.992,99.848
	c0-9.476,0.055-26.578,0.061-26.578c0-7.201,1.092-20.372,0.301-24.261c-8.102,8.101-11.953,3.96-19.274,8.281
	c4.412,1.916,4.821,12.125,4.836,15.512c-1.947-1.047-5.289-2.19-11.851-2.19c-12.098,0-16.072,12.003-16.072,24.771
	c0,21.23,22.249,21.057,28.865,12.359c1.422,6.705,13.231,7.617,18.561,1.232C263.249,109.982,260.992,107.727,260.992,99.848z
	 M233.537,95.286c0-12.769,0.765-21.122,7.822-21.122c3.33,0,5.145,1.661,5.565,3.513v25.052c0,0.748,0.05,1.451,0.144,2.114
	C243.971,110.312,233.537,107.693,233.537,95.286z"/>
<g>
	<path fill="#7DC6C6" stroke="#61AFAD" stroke-linecap="round" stroke-linejoin="round" stroke-miterlimit="10" d="M289.381,105.732
		c-0.004-9.475-0.011-19.935-0.004-19.935c0-7.202,0.467-5.202,0.898-15.667c-5.424,4.607-12.385,3.119-19.873,6.576
		c5.111,0.648,4.824,9.721,4.824,9.721s0.01,0,0.022,0v18.188c-0.006,6.468-4.381,7.663-4.381,7.663s4.562,0,6.528,0
		c6,0,7.838,5.475,15.758-0.047C292.184,112.232,289.562,110.878,289.381,105.732z"/>
	
		<ellipse transform="matrix(0.934 -0.3573 0.3573 0.934 -3.3742 104.1438)" fill="#7DC6C6" stroke="#61AFAD" stroke-linecap="round" stroke-linejoin="round" stroke-miterlimit="10" cx="280.155" cy="61.203" rx="7.778" ry="6.817"/>
</g>
<path fill="#7DC6C6" stroke="#61AFAD" stroke-linecap="round" stroke-linejoin="round" stroke-miterlimit="10" d="M158.645,99.848
	c-0.004-9.476,0.053-16.851,0.06-16.851c0-9.642-9.361-13.021-17.274-13.021c0,0-23.735-0.951-23.735,8.771
	c0,7.921,14.593,8.929,14.593,0c0-6.868,2.978-6.805,5.498-6.805c7.129,0,6.769,8.604,6.769,8.604v0.43
	c-0.319,1.914-1.974,3.715-9.721,5.765c-6.265,1.655-18.19,4.753-18.19,14.762c0,15.124,22.048,14.929,28.776,6.356
	c2.772,6.187,13.464,7.308,19.129-0.614C163.396,107.678,158.645,109.208,158.645,99.848z M131.189,98.693
	c0,0,0.213-6.637,6.525-9.793c1.474-0.735,5.685-2.903,6.845-3.492l0.019,18.326c0,0.42,0.029,0.824,0.072,1.221
	C141.473,110.32,131.189,111.016,131.189,98.693z"/>
<path fill="#7DC6C6" stroke="#61AFAD" stroke-linecap="round" stroke-linejoin="round" stroke-miterlimit="10" d="M103.099,44.304
	c-1.152-5.377-6.53-9.312-16.228-9.312c-16.322,0-22.179,19.395-23.332,27.555c-0.68,4.816-1.92,11.619-5.713,13.586
	c5.113,0.648,4.825,9.723,4.825,9.723s0.009-0.002,0.023-0.002v18.765c-0.006,6.468-4.38,7.664-4.38,7.664s2.405,0,4.476,0h2.053
	c6,0,7.837,5.474,15.758-0.048c-0.892,0-3.162-1.146-3.676-5.297V78.411c3.291-0.05,6.076-0.088,6.657-0.088
	c1.081-1.367,2.449-1.944,2.641-3.289c-1.16,0-6.586,0.146-9.298,0.221v-4.58h-0.081c-0.019-3.088-0.035-7.348-0.035-12.93
	c0-13.633,2.461-21.123,10.849-21.123c3.073,0,7.49,1.537,7.49,4.802c0,5.473-7.448,1.94-6.672,8.589
	C89.465,58.654,106.016,57.917,103.099,44.304z"/>
<g>
	<path fill="#8B408F" stroke="#6C0082" stroke-miterlimit="10" d="M344.607,107.988l0.353-8.456l1.994-8.205l2.847-5.2l3.145-3.006
		l4.035-0.877c2.254,1.503,3.291,1.884,3.951,2.131c0.445,0.164,3.45,4.759,3.45,4.759l1.92,6.515l1.029,7.453l-0.093,4.908
		L344.607,107.988z"/>
	<path fill="#8B408F" stroke="#6C0082" stroke-miterlimit="10" d="M339.025,107.999l0.272-4.495l1.545-4.361l2.207-2.765
		l2.437-1.599l3.127-0.465c1.746,0.8,2.55,1,3.062,1.133c0.345,0.088,2.675,2.529,2.675,2.529l1.486,3.463l0.799,3.961l-0.072,2.608
		L339.025,107.999z"/>
	<path fill="#8B408F" stroke="#6C0082" stroke-miterlimit="10" d="M351.109,107.996l0.279-5.645l1.582-5.477l2.26-3.471l2.492-2.008
		l3.2-0.584c1.788,1.004,2.611,1.256,3.134,1.422c0.354,0.11,2.737,3.178,2.737,3.178l1.522,4.348l0.816,4.975l-0.072,3.274
		L351.109,107.996z"/>
</g>
<polygon fill="#EA3B54" stroke="#FF807D" stroke-miterlimit="10" points="5.979,104.1 10.274,98.036 14.932,94.85 20.469,91.911 
	27.145,91.975 32.371,92.725 39.409,95.036 44.429,100.6 47.688,106.911 48.154,111.725 4.634,111.725 "/>
<g>
	<polyline fill="none" stroke="#F7DF03" stroke-miterlimit="10" points="96.3,93.6 96.3,101.6 95.634,109.432 96.134,117.6 	"/>
	<polygon fill="#FFFF00" stroke="#F7DF03" stroke-miterlimit="10" points="95.029,86.139 97.842,86.014 100.467,87.639 
		102.029,90.326 102.029,93.764 100.404,96.076 97.279,97.264 93.842,96.951 90.404,93.576 90.529,89.139 92.904,86.764 	"/>
	<polygon fill="#FFFF00" stroke="#F7DF03" stroke-miterlimit="10" points="93.395,83.426 94.97,82.262 97.115,82.18 99.062,83.124 
		100.396,85.107 100.356,87.074 99.014,88.973 96.908,90.127 93.614,89.516 91.963,86.904 92.412,84.611 	"/>
	<polygon fill="#FFFF00" stroke="#F7DF03" stroke-miterlimit="10" points="97.979,83.596 96.872,84.334 95.413,84.318 
		94.124,83.613 93.283,82.225 93.375,80.891 94.35,79.646 95.817,78.934 98.032,79.457 99.066,81.283 98.685,82.825 	"/>
</g>
<g>
	<polyline fill="none" stroke="#F7DF03" stroke-miterlimit="10" points="272.029,104.957 272.029,110.846 271.364,116.611 
		271.864,122.623 	"/>
	<polygon fill="#FFFF00" stroke="#F7DF03" stroke-miterlimit="10" points="270.759,97.497 273.572,97.372 276.197,98.997 
		277.759,101.686 277.759,105.122 276.134,107.436 273.009,108.622 269.572,108.311 266.134,104.936 266.259,100.497 
		268.634,98.122 	"/>
	<polygon fill="#FFFF00" stroke="#F7DF03" stroke-miterlimit="10" points="269.125,94.784 270.7,93.62 272.846,93.538 
		274.792,94.482 276.126,96.467 276.086,98.434 274.744,100.331 272.639,101.484 269.344,100.873 267.693,98.264 268.143,95.97 	"/>
	<polygon fill="#FFFF00" stroke="#F7DF03" stroke-miterlimit="10" points="273.709,94.954 272.602,95.691 271.143,95.678 
		269.854,94.973 269.014,93.582 269.105,92.248 270.08,91.006 271.547,90.291 273.762,90.814 274.796,92.643 274.415,94.184 	"/>
</g>
<g>
	<polyline fill="none" stroke="#F7DF03" stroke-miterlimit="10" points="256.364,96.62 256.364,105.288 257.031,113.773 
		256.531,122.623 	"/>
	<polygon fill="#FFFF00" stroke="#F7DF03" stroke-miterlimit="10" points="255.759,88.916 258.572,88.791 261.197,90.416 
		262.759,93.104 262.759,96.541 261.134,98.854 258.009,100.041 254.572,99.729 251.134,96.354 251.259,91.916 253.634,89.541 	"/>
	<polygon fill="#FFFF00" stroke="#F7DF03" stroke-miterlimit="10" points="254.125,86.203 255.7,85.039 257.846,84.957 
		259.792,85.9 261.126,87.886 261.086,89.852 259.744,91.75 257.639,92.904 254.344,92.292 252.693,89.682 253.143,87.389 	"/>
	<polygon fill="#FFFF00" stroke="#F7DF03" stroke-miterlimit="10" points="258.709,86.373 257.602,87.111 256.143,87.098 
		254.854,86.391 254.014,85.001 254.105,83.667 255.08,82.425 256.547,81.71 258.762,82.234 259.796,84.061 259.415,85.604 	"/>
</g>
<g>
	<polyline fill="none" stroke="#FF807D" stroke-miterlimit="10" points="123.676,106.244 121.551,109.119 117.988,113.057 
		114.238,118.994 112.113,113.307 111.488,108.557 110.051,105.369 	"/>
	<polyline fill="none" stroke="#FF807D" stroke-miterlimit="10" points="120.738,101.557 117.551,107.619 116.176,112.807 
		113.863,118.807 	"/>
	<polygon fill="#FF6228" stroke="#FF807D" stroke-miterlimit="10" points="107.926,96.119 110.738,95.994 113.363,97.619 
		114.926,100.307 114.926,103.744 113.301,106.057 110.176,107.244 106.738,106.932 103.301,103.557 103.426,99.119 105.801,96.744 
			"/>
	<polygon fill="#FF6228" stroke="#FF807D" stroke-miterlimit="10" points="118.613,97.369 120.301,96.182 122.863,96.369 
		124.676,97.869 124.488,100.369 123.551,102.307 120.863,102.369 119.113,101.869 117.801,99.807 	"/>
	<path fill="#FF6228" stroke="#FF807D" stroke-miterlimit="10" d="M121.426,103.057l0.188,2.312l2.688,1.75l1.75-0.5l2.25-1.625
		l-0.062-1.938c0,0-0.625-1.938-1.25-2c-0.625-0.062-1.875-0.688-1.875-0.688l-2.562,0.938L121.426,103.057z"/>
</g>
<path fill="#7DC6C6" stroke="#61AFAD" stroke-linecap="round" stroke-linejoin="round" stroke-miterlimit="10" d="M342.188,105.732
	c-0.004-9.475-0.012-25.887-0.004-25.887c0-7.201,0.323-27.378-9.47-31.986c0.146,15.556-7.057,11.523-10.082,17.71
	c5.474,3.455,4.824,16.179,4.824,10.994c0-5.186,0.022,28.052,0.022,28.052c-0.006,6.468-3.805,7.663-3.805,7.663s3.182,0,5.149,0
	c6.001,0,11.45,7.371,17.715,1.105C344.09,113.386,342.369,110.878,342.188,105.732z"/>
<g>
	<path fill="#8B408F" stroke="#6C0082" stroke-miterlimit="10" d="M41.624,118.995l0.372-5.411l2.104-5.251l3.003-3.328l3.317-1.924
		l4.257-0.562c2.378,0.963,3.472,1.205,4.168,1.363c0.47,0.105,3.64,3.047,3.64,3.047l2.025,4.168l1.086,4.771l-0.097,3.141
		L41.624,118.995z"/>
	<path fill="#8B408F" stroke="#6C0082" stroke-miterlimit="10" d="M25.624,119.002l0.401-2.795l2.269-2.712l3.238-1.72l3.576-0.993
		l4.59-0.289c2.564,0.497,3.744,0.622,4.494,0.704c0.507,0.055,3.925,1.572,3.925,1.572l2.184,2.153l1.171,2.463l-0.104,1.622
		L25.624,119.002z"/>
</g>
<g>
	<polyline fill="none" stroke="#FF807D" stroke-miterlimit="10" points="55.409,106.496 57.534,109.371 61.097,113.309 
		64.847,119.246 66.972,113.559 67.597,108.809 69.034,105.621 	"/>
	<polyline fill="none" stroke="#FF807D" stroke-miterlimit="10" points="58.347,101.809 61.534,107.871 62.909,113.059 
		65.222,119.059 68.784,116.08 71.368,111.663 72.951,110.663 	"/>
	<polygon fill="#FF3047" stroke="#FF807D" stroke-miterlimit="10" points="70.864,97.736 68.75,97.643 66.777,98.864 
		65.602,100.885 65.602,103.469 66.824,105.207 69.173,106.1 71.757,105.865 74.341,103.328 74.248,99.992 72.462,98.206 	"/>
	<polygon fill="#FF3047" stroke="#FF807D" stroke-miterlimit="10" points="73.478,107.812 72.083,107.749 70.781,108.555 
		70.005,109.889 70.005,111.592 70.811,112.739 72.362,113.328 74.066,113.174 75.771,111.5 75.709,109.299 74.532,108.121 	"/>
	<polygon fill="#FF3047" stroke="#FF807D" stroke-miterlimit="10" points="61.72,96.715 59.229,94.963 55.448,95.239 52.774,97.452 
		53.051,101.143 54.435,104 58.399,104.093 60.982,103.354 62.919,100.312 	"/>
	<path fill="#FF3047" stroke="#FF807D" stroke-miterlimit="10" d="M58.402,105.311l-0.187,2.308l-2.682,1.746l-1.746-0.499
		l-2.246-1.621l0.063-1.934c0,0,0.624-1.934,1.247-1.996c0.623-0.062,1.871-0.686,1.871-0.686l2.557,0.936L58.402,105.311z"/>
</g>
<g>
	<polyline fill="none" stroke="#FF807D" stroke-miterlimit="10" points="286.591,99.616 288.716,102.491 292.277,106.43 
		296.027,112.366 298.152,106.68 298.777,101.93 300.216,98.741 	"/>
	<polyline fill="none" stroke="#FF807D" stroke-miterlimit="10" points="289.527,94.93 292.716,100.991 294.091,106.18 
		296.402,112.18 299.966,109.2 302.549,104.783 304.132,103.783 	"/>
	<polygon fill="#F9697E" stroke="#FF807D" stroke-miterlimit="10" points="302.046,90.855 299.932,90.764 297.958,91.984 
		296.784,94.005 296.784,96.589 298.005,98.327 300.354,99.22 302.939,98.984 305.523,96.448 305.43,93.111 303.645,91.326 	"/>
	<polygon fill="#F9697E" stroke="#FF807D" stroke-miterlimit="10" points="304.66,100.932 303.264,100.869 301.962,101.675 
		301.188,103.009 301.188,104.712 301.993,105.859 303.543,106.448 305.248,106.294 306.953,104.62 306.891,102.419 
		305.713,101.241 	"/>
	<polygon fill="#F9697E" stroke="#FF807D" stroke-miterlimit="10" points="292.9,89.835 290.411,88.083 286.63,88.359 
		283.956,90.572 284.232,94.262 285.616,97.12 289.581,97.213 292.164,96.475 294.102,93.432 	"/>
	<path fill="#F9697E" stroke="#FF807D" stroke-miterlimit="10" d="M289.583,98.43l-0.187,2.309l-2.683,1.746l-1.746-0.5l-2.245-1.62
		l0.062-1.935c0,0,0.624-1.933,1.247-1.994c0.622-0.062,1.87-0.687,1.87-0.687l2.558,0.937L289.583,98.43z"/>
</g>
<path fill="#EA3B54" stroke="#FF807D" stroke-miterlimit="10" d="M358.721,114.428l0.506-5.41l2.873-5.252l4.103-3.328l4.528-1.924
	l5.812-0.561c3.247,0.962,4.742,1.205,5.691,1.363c0.642,0.104,4.972,3.045,4.972,3.045l2.767,4.17l1.481,4.77l-0.134,3.141
	L358.721,114.428z"/>
<image overflow="visible" width="618" height="531" xlink:href="../../../../../Screen Shot 2016-04-17 at 11.39.36 PM.png"  transform="matrix(1 0 0 1 -879.0879 -252.9316)">
</image>
</svg>
